<mxfile host="app.diagrams.net" modified="2021-04-23T02:57:45.032Z" agent="5.0 (Windows NT 10.0; WOW64) AppleWebKit/537.36 (KHTML, like Gecko) Chrome/80.0.3987.149 Safari/537.36" etag="6fw-yEDt3KyoDFwVMkmF" version="14.6.3" type="github">
  <diagram name="Page-1" id="5f0bae14-7c28-e335-631c-24af17079c00">
    <mxGraphModel dx="1422" dy="713" grid="1" gridSize="10" guides="1" tooltips="1" connect="1" arrows="1" fold="1" page="1" pageScale="1" pageWidth="1100" pageHeight="850" background="#ffffff" math="0" shadow="0">
      <root>
        <mxCell id="0" />
        <mxCell id="1" parent="0" />
        <mxCell id="39150e848f15840c-1" value="POD" style="verticalAlign=top;align=left;spacingTop=8;spacingLeft=2;spacingRight=12;shape=cube;size=10;direction=south;fontStyle=4;html=1;rounded=0;shadow=0;comic=0;labelBackgroundColor=none;strokeWidth=1;fontFamily=Verdana;fontSize=12" parent="1" vertex="1">
          <mxGeometry x="90" y="370" width="170" height="230" as="geometry" />
        </mxCell>
        <mxCell id="39150e848f15840c-4" value="Database Service&lt;br&gt;Container" style="html=1;rounded=0;shadow=0;comic=0;labelBackgroundColor=none;strokeWidth=1;fontFamily=Verdana;fontSize=12;align=center;fillColor=#ffe6cc;strokeColor=#d79b00;" parent="1" vertex="1">
          <mxGeometry x="110" y="425" width="110" height="50" as="geometry" />
        </mxCell>
        <mxCell id="39150e848f15840c-15" style="edgeStyle=orthogonalEdgeStyle;rounded=0;html=1;labelBackgroundColor=none;startArrow=none;startFill=0;startSize=8;endArrow=open;endFill=0;endSize=16;fontFamily=Verdana;fontSize=12;dashed=1;exitX=0.5;exitY=0;exitDx=0;exitDy=0;" parent="1" source="SyJkK75svxZF_1K1uwYF-1" target="39150e848f15840c-4" edge="1">
          <mxGeometry relative="1" as="geometry">
            <Array as="points">
              <mxPoint x="165" y="520" />
              <mxPoint x="165" y="520" />
            </Array>
            <mxPoint x="300" y="480" as="sourcePoint" />
          </mxGeometry>
        </mxCell>
        <mxCell id="SyJkK75svxZF_1K1uwYF-1" value="Backup Service&lt;br&gt;Container" style="html=1;rounded=0;shadow=0;comic=0;labelBackgroundColor=none;strokeWidth=1;fontFamily=Verdana;fontSize=12;align=center;fillColor=#dae8fc;strokeColor=#6c8ebf;" vertex="1" parent="1">
          <mxGeometry x="110" y="530" width="110" height="50" as="geometry" />
        </mxCell>
        <mxCell id="SyJkK75svxZF_1K1uwYF-25" style="rounded=0;orthogonalLoop=1;jettySize=auto;html=1;entryX=0;entryY=0;entryDx=0;entryDy=80;entryPerimeter=0;exitX=0;exitY=0;exitDx=70;exitDy=90;exitPerimeter=0;" edge="1" parent="1" source="SyJkK75svxZF_1K1uwYF-10" target="39150e848f15840c-1">
          <mxGeometry relative="1" as="geometry" />
        </mxCell>
        <mxCell id="SyJkK75svxZF_1K1uwYF-26" style="edgeStyle=none;rounded=0;orthogonalLoop=1;jettySize=auto;html=1;entryX=0;entryY=0;entryDx=0;entryDy=80;entryPerimeter=0;exitX=0;exitY=0;exitDx=70;exitDy=90;exitPerimeter=0;" edge="1" parent="1" source="SyJkK75svxZF_1K1uwYF-10" target="SyJkK75svxZF_1K1uwYF-16">
          <mxGeometry relative="1" as="geometry" />
        </mxCell>
        <mxCell id="SyJkK75svxZF_1K1uwYF-10" value="Node" style="shape=cube;whiteSpace=wrap;html=1;boundedLbl=1;backgroundOutline=1;darkOpacity=0.05;darkOpacity2=0.1;size=10;" vertex="1" parent="1">
          <mxGeometry x="330" y="190" width="130" height="90" as="geometry" />
        </mxCell>
        <mxCell id="SyJkK75svxZF_1K1uwYF-12" value="POD" style="verticalAlign=top;align=left;spacingTop=8;spacingLeft=2;spacingRight=12;shape=cube;size=10;direction=south;fontStyle=4;html=1;rounded=0;shadow=0;comic=0;labelBackgroundColor=none;strokeWidth=1;fontFamily=Verdana;fontSize=12" vertex="1" parent="1">
          <mxGeometry x="310" y="370" width="170" height="230" as="geometry" />
        </mxCell>
        <mxCell id="SyJkK75svxZF_1K1uwYF-13" value="Database Service&lt;br&gt;Container" style="html=1;rounded=0;shadow=0;comic=0;labelBackgroundColor=none;strokeWidth=1;fontFamily=Verdana;fontSize=12;align=center;fillColor=#ffe6cc;strokeColor=#d79b00;" vertex="1" parent="1">
          <mxGeometry x="330" y="425" width="110" height="50" as="geometry" />
        </mxCell>
        <mxCell id="SyJkK75svxZF_1K1uwYF-14" style="edgeStyle=orthogonalEdgeStyle;rounded=0;html=1;labelBackgroundColor=none;startArrow=none;startFill=0;startSize=8;endArrow=open;endFill=0;endSize=16;fontFamily=Verdana;fontSize=12;dashed=1;exitX=0.5;exitY=0;exitDx=0;exitDy=0;" edge="1" parent="1" source="SyJkK75svxZF_1K1uwYF-15" target="SyJkK75svxZF_1K1uwYF-13">
          <mxGeometry relative="1" as="geometry">
            <Array as="points">
              <mxPoint x="385" y="520" />
              <mxPoint x="385" y="520" />
            </Array>
            <mxPoint x="520" y="480" as="sourcePoint" />
          </mxGeometry>
        </mxCell>
        <mxCell id="SyJkK75svxZF_1K1uwYF-15" value="Backup Service&lt;br&gt;Container" style="html=1;rounded=0;shadow=0;comic=0;labelBackgroundColor=none;strokeWidth=1;fontFamily=Verdana;fontSize=12;align=center;fillColor=#dae8fc;strokeColor=#6c8ebf;" vertex="1" parent="1">
          <mxGeometry x="330" y="530" width="110" height="50" as="geometry" />
        </mxCell>
        <mxCell id="SyJkK75svxZF_1K1uwYF-16" value="POD" style="verticalAlign=top;align=left;spacingTop=8;spacingLeft=2;spacingRight=12;shape=cube;size=10;direction=south;fontStyle=4;html=1;rounded=0;shadow=0;comic=0;labelBackgroundColor=none;strokeWidth=1;fontFamily=Verdana;fontSize=12" vertex="1" parent="1">
          <mxGeometry x="530" y="370" width="170" height="230" as="geometry" />
        </mxCell>
        <mxCell id="SyJkK75svxZF_1K1uwYF-17" value="Database Service&lt;br&gt;Container" style="html=1;rounded=0;shadow=0;comic=0;labelBackgroundColor=none;strokeWidth=1;fontFamily=Verdana;fontSize=12;align=center;fillColor=#ffe6cc;strokeColor=#d79b00;" vertex="1" parent="1">
          <mxGeometry x="550" y="425" width="110" height="50" as="geometry" />
        </mxCell>
        <mxCell id="SyJkK75svxZF_1K1uwYF-18" style="edgeStyle=orthogonalEdgeStyle;rounded=0;html=1;labelBackgroundColor=none;startArrow=none;startFill=0;startSize=8;endArrow=open;endFill=0;endSize=16;fontFamily=Verdana;fontSize=12;dashed=1;exitX=0.5;exitY=0;exitDx=0;exitDy=0;" edge="1" source="SyJkK75svxZF_1K1uwYF-19" target="SyJkK75svxZF_1K1uwYF-17" parent="1">
          <mxGeometry relative="1" as="geometry">
            <Array as="points">
              <mxPoint x="605" y="520" />
              <mxPoint x="605" y="520" />
            </Array>
            <mxPoint x="740" y="480" as="sourcePoint" />
          </mxGeometry>
        </mxCell>
        <mxCell id="SyJkK75svxZF_1K1uwYF-19" value="Backup Service&lt;br&gt;Container" style="html=1;rounded=0;shadow=0;comic=0;labelBackgroundColor=none;strokeWidth=1;fontFamily=Verdana;fontSize=12;align=center;fillColor=#dae8fc;strokeColor=#6c8ebf;" vertex="1" parent="1">
          <mxGeometry x="550" y="530" width="110" height="50" as="geometry" />
        </mxCell>
        <mxCell id="SyJkK75svxZF_1K1uwYF-20" value="POD" style="verticalAlign=top;align=left;spacingTop=8;spacingLeft=2;spacingRight=12;shape=cube;size=10;direction=south;fontStyle=4;html=1;rounded=0;shadow=0;comic=0;labelBackgroundColor=none;strokeWidth=1;fontFamily=Verdana;fontSize=12" vertex="1" parent="1">
          <mxGeometry x="750" y="370" width="170" height="230" as="geometry" />
        </mxCell>
        <mxCell id="SyJkK75svxZF_1K1uwYF-21" value="Database Service&lt;br&gt;Container" style="html=1;rounded=0;shadow=0;comic=0;labelBackgroundColor=none;strokeWidth=1;fontFamily=Verdana;fontSize=12;align=center;fillColor=#ffe6cc;strokeColor=#d79b00;" vertex="1" parent="1">
          <mxGeometry x="770" y="425" width="110" height="50" as="geometry" />
        </mxCell>
        <mxCell id="SyJkK75svxZF_1K1uwYF-22" style="edgeStyle=orthogonalEdgeStyle;rounded=0;html=1;labelBackgroundColor=none;startArrow=none;startFill=0;startSize=8;endArrow=open;endFill=0;endSize=16;fontFamily=Verdana;fontSize=12;dashed=1;exitX=0.5;exitY=0;exitDx=0;exitDy=0;" edge="1" source="SyJkK75svxZF_1K1uwYF-23" target="SyJkK75svxZF_1K1uwYF-21" parent="1">
          <mxGeometry relative="1" as="geometry">
            <Array as="points">
              <mxPoint x="825" y="520" />
              <mxPoint x="825" y="520" />
            </Array>
            <mxPoint x="960" y="480" as="sourcePoint" />
          </mxGeometry>
        </mxCell>
        <mxCell id="SyJkK75svxZF_1K1uwYF-23" value="Backup Service&lt;br&gt;Container" style="html=1;rounded=0;shadow=0;comic=0;labelBackgroundColor=none;strokeWidth=1;fontFamily=Verdana;fontSize=12;align=center;fillColor=#dae8fc;strokeColor=#6c8ebf;" vertex="1" parent="1">
          <mxGeometry x="770" y="530" width="110" height="50" as="geometry" />
        </mxCell>
        <mxCell id="SyJkK75svxZF_1K1uwYF-27" style="edgeStyle=none;rounded=0;orthogonalLoop=1;jettySize=auto;html=1;entryX=-0.004;entryY=0.512;entryDx=0;entryDy=0;entryPerimeter=0;exitX=0;exitY=0;exitDx=70;exitDy=90;exitPerimeter=0;" edge="1" parent="1" source="SyJkK75svxZF_1K1uwYF-24" target="SyJkK75svxZF_1K1uwYF-12">
          <mxGeometry relative="1" as="geometry" />
        </mxCell>
        <mxCell id="SyJkK75svxZF_1K1uwYF-28" style="edgeStyle=none;rounded=0;orthogonalLoop=1;jettySize=auto;html=1;entryX=0;entryY=0.394;entryDx=0;entryDy=0;entryPerimeter=0;exitX=0;exitY=0;exitDx=70;exitDy=90;exitPerimeter=0;" edge="1" parent="1" source="SyJkK75svxZF_1K1uwYF-24" target="SyJkK75svxZF_1K1uwYF-20">
          <mxGeometry relative="1" as="geometry" />
        </mxCell>
        <mxCell id="SyJkK75svxZF_1K1uwYF-24" value="Node" style="shape=cube;whiteSpace=wrap;html=1;boundedLbl=1;backgroundOutline=1;darkOpacity=0.05;darkOpacity2=0.1;size=10;" vertex="1" parent="1">
          <mxGeometry x="550" y="190" width="130" height="90" as="geometry" />
        </mxCell>
        <mxCell id="SyJkK75svxZF_1K1uwYF-30" style="edgeStyle=none;rounded=0;orthogonalLoop=1;jettySize=auto;html=1;entryX=0;entryY=0;entryDx=60;entryDy=0;entryPerimeter=0;exitX=0;exitY=0;exitDx=70;exitDy=80;exitPerimeter=0;" edge="1" parent="1" source="SyJkK75svxZF_1K1uwYF-29" target="SyJkK75svxZF_1K1uwYF-10">
          <mxGeometry relative="1" as="geometry" />
        </mxCell>
        <mxCell id="SyJkK75svxZF_1K1uwYF-31" style="edgeStyle=none;rounded=0;orthogonalLoop=1;jettySize=auto;html=1;entryX=0.531;entryY=0;entryDx=0;entryDy=0;entryPerimeter=0;exitX=0;exitY=0;exitDx=70;exitDy=80;exitPerimeter=0;" edge="1" parent="1" source="SyJkK75svxZF_1K1uwYF-29" target="SyJkK75svxZF_1K1uwYF-24">
          <mxGeometry relative="1" as="geometry" />
        </mxCell>
        <mxCell id="SyJkK75svxZF_1K1uwYF-29" value="Cluster" style="shape=cube;whiteSpace=wrap;html=1;boundedLbl=1;backgroundOutline=1;darkOpacity=0.05;darkOpacity2=0.1;" vertex="1" parent="1">
          <mxGeometry x="450" y="40" width="120" height="80" as="geometry" />
        </mxCell>
      </root>
    </mxGraphModel>
  </diagram>
</mxfile>
